Coordinates
version=1
nRows=27
nColumns=38
inDegrees=no

Units are S.I. units (second, meters, Newtons, ...)
If the header above contains a line with 'inDegrees', this indicates whether rotational values are in degrees (yes) or radians (no).

endheader
time	pelvis_tilt	pelvis_list	pelvis_rotation	pelvis_tx	pelvis_ty	pelvis_tz	hip_flexion_r	hip_adduction_r	hip_rotation_r	knee_angle_r	ankle_angle_r	subtalar_angle_r	mtp_angle_r	hip_flexion_l	hip_adduction_l	hip_rotation_l	knee_angle_l	ankle_angle_l	subtalar_angle_l	mtp_angle_l	lumbar_extension	lumbar_bending	lumbar_rotation	arm_flex_r	arm_add_r	arm_rot_r	elbow_flex_r	pro_sup_r	wrist_flex_r	wrist_dev_r	arm_flex_l	arm_add_l	arm_rot_l	elbow_flex_l	pro_sup_l	wrist_flex_l	wrist_dev_l
20.74	-0.571682	1.39037	-0.890184	0.766955	-0.339192	0.943738	-0.239129	0.048194	-0.139431	0.429672	-0.350583	0	0	-0.434401	-0.16285	0.00461847	0.0213008	-0.385077	0	0	-0.890013	0.274003	0.394037	-0.563916	-0.287126	-0.650882	1.88654	1.5708	0	0	0.22642	-0.15472	0.325681	1.23332	1.5708	0	0
20.75	-0.570609	1.38731	-0.890256	0.767652	-0.341201	0.943772	-0.2308	0.0477608	-0.142809	0.452843	-0.345965	0	0	-0.440719	-0.164442	0.00565637	0.0191681	-0.386002	0	0	-0.89375	0.277413	0.390888	-0.566071	-0.28724	-0.647733	1.88694	1.5708	0	0	0.217051	-0.156701	0.321015	1.23883	1.5708	0	0
20.76	-0.569194	1.38438	-0.890614	0.768319	-0.343165	0.943827	-0.222541	0.0471942	-0.145983	0.473714	-0.340071	0	0	-0.446873	-0.165897	0.00759087	0.0169211	-0.386919	0	0	-0.897584	0.280774	0.387695	-0.568171	-0.287165	-0.644905	1.88776	1.5708	0	0	0.207589	-0.158332	0.31561	1.24412	1.5708	0	0
20.77	-0.567491	1.38141	-0.891427	0.768936	-0.345105	0.943902	-0.214729	0.0466965	-0.148591	0.491628	-0.332596	0	0	-0.452966	-0.167252	0.00960356	0.0147828	-0.387839	0	0	-0.901396	0.28393	0.38464	-0.57007	-0.287016	-0.64219	1.88868	1.5708	0	0	0.198196	-0.159418	0.309589	1.24874	1.5708	0	0
20.78	-0.565749	1.37825	-0.892304	0.7695	-0.347026	0.944009	-0.207629	0.0464325	-0.151122	0.50668	-0.323628	0	0	-0.458948	-0.168764	0.0116619	0.0131768	-0.388923	0	0	-0.905393	0.287017	0.3819	-0.572	-0.286756	-0.639486	1.8895	1.5708	0	0	0.189004	-0.160219	0.303466	1.25306	1.5708	0	0
20.79	-0.565748	1.37517	-0.891103	0.770021	-0.348954	0.944153	-0.201068	0.0467849	-0.153457	0.517872	-0.315325	0	0	-0.464235	-0.170796	0.0141054	0.0123384	-0.389942	0	0	-0.90906	0.290589	0.379521	-0.574023	-0.286174	-0.636792	1.89016	1.5708	0	0	0.180366	-0.160961	0.298092	1.25655	1.5708	0	0
20.8	-0.567358	1.37215	-0.888362	0.770517	-0.350814	0.944334	-0.194568	0.0472303	-0.155629	0.526519	-0.306958	0	0	-0.46912	-0.173056	0.0168117	0.0115553	-0.390992	0	0	-0.912901	0.294331	0.377293	-0.575945	-0.285879	-0.633939	1.89121	1.5708	0	0	0.171569	-0.16181	0.292559	1.26072	1.5708	0	0
20.81	-0.570337	1.36928	-0.884039	0.770986	-0.352662	0.94455	-0.188155	0.0479885	-0.157993	0.531985	-0.299528	0	0	-0.473495	-0.175613	0.0196153	0.010944	-0.392006	0	0	-0.916538	0.298291	0.374673	-0.577355	-0.285937	-0.630573	1.89198	1.5708	0	0	0.162951	-0.162847	0.287051	1.26488	1.5708	0	0
20.82	-0.572729	1.36651	-0.88067	0.771379	-0.354445	0.94482	-0.181886	0.0487261	-0.159795	0.534439	-0.293303	0	0	-0.477697	-0.177928	0.0217795	0.0106439	-0.393256	0	0	-0.920308	0.301796	0.371946	-0.578171	-0.286236	-0.626885	1.89259	1.5708	0	0	0.154757	-0.163996	0.281541	1.26897	1.5708	0	0
20.83	-0.57531	1.36368	-0.877487	0.771696	-0.356159	0.945141	-0.17583	0.0496103	-0.160989	0.533711	-0.288644	0	0	-0.481739	-0.180203	0.0232943	0.0106889	-0.394766	0	0	-0.924427	0.305013	0.369556	-0.578667	-0.286561	-0.623481	1.89327	1.5708	0	0	0.146866	-0.16477	0.275464	1.27302	1.5708	0	0
20.84	-0.579673	1.36105	-0.872562	0.771937	-0.357832	0.945485	-0.169607	0.0508561	-0.162128	0.529955	-0.286106	0	0	-0.485045	-0.182753	0.0243029	0.0111909	-0.396351	0	0	-0.928327	0.308224	0.367405	-0.57895	-0.286925	-0.620121	1.89343	1.5708	0	0	0.139039	-0.165207	0.268955	1.27666	1.5708	0	0
20.85	-0.586388	1.35864	-0.866099	0.772123	-0.35941	0.945838	-0.162736	0.0524036	-0.161679	0.523748	-0.285776	0	0	-0.487732	-0.185219	0.0244142	0.0120249	-0.397994	0	0	-0.93214	0.311097	0.36602	-0.579393	-0.287882	-0.616488	1.89338	1.5708	0	0	0.131275	-0.165461	0.262614	1.28001	1.5708	0	0
20.86	-0.594866	1.35621	-0.858042	0.772246	-0.360947	0.946241	-0.155745	0.0547508	-0.16071	0.515845	-0.286633	0	0	-0.490041	-0.188038	0.0239318	0.0128185	-0.399941	0	0	-0.935966	0.314003	0.364929	-0.579527	-0.288788	-0.612976	1.89352	1.5708	0	0	0.123519	-0.165489	0.256184	1.28293	1.5708	0	0
20.87	-0.604365	1.35375	-0.848994	0.772312	-0.362475	0.946701	-0.149026	0.0575589	-0.159276	0.506159	-0.287736	0	0	-0.492065	-0.191154	0.0233425	0.0136575	-0.402074	0	0	-0.93992	0.317	0.363956	-0.579353	-0.289716	-0.609153	1.89356	1.5708	0	0	0.115857	-0.16541	0.249666	1.28533	1.5708	0	0
20.88	-0.617078	1.35132	-0.836289	0.772416	-0.364021	0.947156	-0.142179	0.0610799	-0.158089	0.494037	-0.289922	0	0	-0.493163	-0.195062	0.0226617	0.01514	-0.404135	0	0	-0.943403	0.320875	0.36282	-0.578851	-0.29099	-0.604945	1.89303	1.5708	0	0	0.108063	-0.16523	0.243008	1.28741	1.5708	0	0
20.89	-0.632703	1.34883	-0.820518	0.772571	-0.365568	0.94759	-0.135165	0.0652895	-0.15676	0.480058	-0.293463	0	0	-0.493504	-0.199542	0.0215788	0.0171306	-0.405927	0	0	-0.946365	0.325452	0.361584	-0.577989	-0.292831	-0.600345	1.89194	1.5708	0	0	0.0999947	-0.164854	0.236169	1.28943	1.5708	0	0
20.9	-0.647959	1.34616	-0.805906	0.772592	-0.367021	0.948043	-0.128302	0.0695507	-0.153406	0.465351	-0.297968	0	0	-0.493907	-0.203778	0.0191986	0.0194725	-0.407499	0	0	-0.949621	0.329307	0.361009	-0.577021	-0.294881	-0.595624	1.8909	1.5708	0	0	0.0922103	-0.164576	0.229554	1.29199	1.5708	0	0
20.91	-0.663568	1.34352	-0.791749	0.772447	-0.368401	0.948503	-0.121282	0.07416	-0.147898	0.449236	-0.303748	0	0	-0.494124	-0.207822	0.0155596	0.0221106	-0.409332	0	0	-0.953172	0.332288	0.360658	-0.575751	-0.297249	-0.590264	1.89015	1.5708	0	0	0.0841272	-0.164187	0.22187	1.29534	1.5708	0	0
20.92	-0.678244	1.34079	-0.778292	0.772258	-0.369809	0.948978	-0.11475	0.0788158	-0.142708	0.431563	-0.308873	0	0	-0.494596	-0.211945	0.0120996	0.024433	-0.411286	0	0	-0.956786	0.335192	0.36015	-0.574407	-0.299516	-0.584662	1.8892	1.5708	0	0	0.076296	-0.16399	0.214267	1.29829	1.5708	0	0
20.93	-0.691441	1.33786	-0.766055	0.772026	-0.371275	0.949459	-0.109241	0.083562	-0.137363	0.412175	-0.314184	0	0	-0.495586	-0.216157	0.00915392	0.0264086	-0.413466	0	0	-0.960335	0.338048	0.359333	-0.572751	-0.301793	-0.578757	1.88749	1.5708	0	0	0.0685805	-0.163838	0.20675	1.30072	1.5708	0	0
20.94	-0.702917	1.33472	-0.755276	0.771751	-0.372771	0.949952	-0.104756	0.0884488	-0.132151	0.39115	-0.320733	0	0	-0.496943	-0.220465	0.00673967	0.0285751	-0.415755	0	0	-0.964095	0.340917	0.358142	-0.570682	-0.303909	-0.572956	1.8855	1.5708	0	0	0.060837	-0.163761	0.19925	1.30282	1.5708	0	0
20.95	-0.712966	1.33135	-0.746064	0.771426	-0.374255	0.950463	-0.100968	0.0935007	-0.126097	0.369086	-0.329225	0	0	-0.498718	-0.224723	0.00414132	0.0305669	-0.417788	0	0	-0.968299	0.343539	0.357139	-0.568826	-0.306119	-0.566826	1.88372	1.5708	0	0	0.0532036	-0.163529	0.191746	1.30457	1.5708	0	0
20.96	-0.722066	1.328	-0.738065	0.771057	-0.375697	0.950947	-0.0972307	0.0983709	-0.119621	0.346684	-0.341054	0	0	-0.500645	-0.228726	0.00152364	0.0324437	-0.419614	0	0	-0.972386	0.345782	0.356101	-0.56682	-0.30842	-0.56047	1.88222	1.5708	0	0	0.0457705	-0.16324	0.184317	1.30596	1.5708	0	0
20.97	-0.739061	1.32649	-0.723525	0.770369	-0.377043	0.951174	-0.0899727	0.103373	-0.10976	0.325583	-0.355071	0	0	-0.499487	-0.23247	-0.000581319	0.0349745	-0.420898	0	0	-0.973879	0.346877	0.355253	-0.564116	-0.310489	-0.553537	1.88031	1.5708	0	0	0.0381988	-0.163461	0.17702	1.30725	1.5708	0	0
20.98	-0.756421	1.32524	-0.708423	0.769652	-0.378475	0.951346	-0.0830435	0.10829	-0.100065	0.304484	-0.369137	0	0	-0.497773	-0.23622	-0.00203094	0.0380337	-0.421739	0	0	-0.974681	0.348052	0.35392	-0.561144	-0.312535	-0.546253	1.87775	1.5708	0	0	0.0305472	-0.163611	0.169394	1.3081	1.5708	0	0
20.99	-0.771698	1.3239	-0.695407	0.768895	-0.379951	0.951508	-0.0772285	0.112868	-0.090425	0.283443	-0.38162	0	0	-0.496528	-0.239692	-0.00307932	0.0411041	-0.422315	0	0	-0.975438	0.348927	0.352498	-0.558286	-0.314702	-0.538499	1.87456	1.5708	0	0	0.0230971	-0.163574	0.161375	1.30895	1.5708	0	0
21	-0.784199	1.32239	-0.685158	0.768128	-0.381443	0.951669	-0.0725727	0.11702	-0.08116	0.262755	-0.392329	0	0	-0.495978	-0.242799	-0.00389396	0.0442393	-0.422687	0	0	-0.976479	0.349468	0.351117	-0.555831	-0.316898	-0.530946	1.87152	1.5708	0	0	0.0156608	-0.163405	0.153066	1.31051	1.5708	0	0
